<?xml version="1.0" encoding="UTF-8"?>
<svg version="1.1" xmlns="http://www.w3.org/2000/svg" width="150" height="150">
<path d="M0 0 C5.00330085 2.84163131 8.92457418 6.96122253 10.75 12.4375 C10.8684909 14.03850495 10.92517023 15.64466361 10.9375 17.25 C10.95167969 18.08144531 10.96585938 18.91289062 10.98046875 19.76953125 C10.75 22.4375 10.75 22.4375 8.75 28.4375 C-0.16 28.4375 -9.07 28.4375 -18.25 28.4375 C-16.25 25.4375 -16.25 25.4375 -13.7890625 24.8125 C-12.82742187 24.68875 -11.86578125 24.565 -10.875 24.4375 C-6.82341354 23.91330553 -4.23344498 23.33053756 -1.25 20.4375 C-0.79452398 17.31423586 -0.69723223 15.38045679 -2.3125 12.625 C-5.36690548 10.75294503 -7.68116591 10.4375 -11.25 10.4375 C-14.12551522 12.64614421 -14.12551522 12.64614421 -16.25 15.4375 C-18.25 17.4375 -18.25 17.4375 -21.25 17.75 C-22.24 17.646875 -23.23 17.54375 -24.25 17.4375 C-26.25 14.4375 -26.25 14.4375 -26.1875 11.125 C-24.80029319 5.6686532 -22.13189675 2.75045122 -17.5625 -0.4375 C-11.61242371 -2.45828063 -5.80610498 -2.5804911 0 0 Z " fill="#3A1583" transform="translate(85.25,121.5625)"/>
<path d="M0 0 C6.98132187 0.42311042 11.38099686 1.2534981 16.44140625 6.4921875 C20.73185501 11.40603479 21.30254089 15.14044056 21.2109375 21.43359375 C20.77007608 26.79740768 18.94668698 30.05331302 15.1875 33.8125 C10.53064434 37.00838133 6.6479028 38.33222958 1 38 C0.67 38.99 0.34 39.98 0 41 C0 36.38 0 31.76 0 27 C3.07617188 25.48632812 3.07617188 25.48632812 6.15234375 23.97265625 C7.96249027 23.13628173 7.96249027 23.13628173 9 22 C9.40285401 17.91891525 9.40285401 17.91891525 7.875 14.25 C5.39275268 12.59516846 2.85295126 11.82418592 0 11 C0 7.37 0 3.74 0 0 Z " fill="#3A1683" transform="translate(0,45)"/>
<path d="M0 0 C8.91 0 17.82 0 27 0 C22.8714775 5.16065312 21.04551053 6.4916152 15 8 C12 8.1875 12 8.1875 10 8 C9.8453125 9.175625 9.8453125 9.175625 9.6875 10.375 C9 13 9 13 6 15 C2.67759676 14.6758631 1.39223697 14.39223697 -1 12 C-1.24379342 7.69298294 -0.85316429 4.26582143 0 0 Z " fill="#3B1684" transform="translate(66,0)"/>
<path d="M0 0 C0.78649032 9.97968824 0.78649032 9.97968824 -2.3125 14 C-3.199375 14.66 -4.08625 15.32 -5 16 C-5.7115625 16.8971875 -5.7115625 16.8971875 -6.4375 17.8125 C-8.93206604 19.70837019 -10.98653479 19.38469769 -14 19 C-16 16 -16 16 -15.9375 12.6875 C-14.51472575 7.09125461 -11.82273727 4.11596159 -6.9375 1.125 C-4 0 -4 0 0 0 Z " fill="#3B1683" transform="translate(150,45)"/>
<path d="M0 0 C0.94875 0.04125 1.8975 0.0825 2.875 0.125 C2.95574203 2.75061109 3.0153623 5.37375676 3.0625 8 C3.10020508 9.11955078 3.10020508 9.11955078 3.13867188 10.26171875 C3.16796875 12.4296875 3.16796875 12.4296875 2.875 16.125 C-0.125 18.125 -0.125 18.125 -2.6875 17.875 C-5.125 17.125 -5.125 17.125 -7.125 15.125 C-7.49420211 10.32537256 -6.98342571 6.56457254 -5.125 2.125 C-3.125 0.125 -3.125 0.125 0 0 Z " fill="#3A1583" transform="translate(147.125,71.875)"/>
<path d="M0 0 C1.875 1.6875 1.875 1.6875 3 4 C2.75925978 7.37036311 2.41201979 8.58798021 0 11 C-2.84602594 11.36487512 -4.3864306 11.40199375 -6.8125 9.8125 C-8.42525784 7.35092224 -8.4334014 5.88934264 -8 3 C-5.86922119 -0.25224135 -3.7535559 -0.65687228 0 0 Z " fill="#3F1B86" transform="translate(145,93)"/>
<path d="M0 0 C1.875 1.6875 1.875 1.6875 3 4 C2.75925978 7.37036311 2.41201979 8.58798021 0 11 C-2.84602594 11.36487512 -4.3864306 11.40199375 -6.8125 9.8125 C-8.42525784 7.35092224 -8.4334014 5.88934264 -8 3 C-5.86922119 -0.25224135 -3.7535559 -0.65687228 0 0 Z " fill="#3F1B86" transform="translate(70,18)"/>
</svg>
